<?xml version="1.0" encoding="utf-8"?>
<!-- Generator: Adobe Illustrator 16.0.0, SVG Export Plug-In . SVG Version: 6.00 Build 0)  -->
<!DOCTYPE svg PUBLIC "-//W3C//DTD SVG 1.1//EN" "http://www.w3.org/Graphics/SVG/1.1/DTD/svg11.dtd">
<svg version="1.1" id="Layer_1" xmlns="http://www.w3.org/2000/svg" xmlns:xlink="http://www.w3.org/1999/xlink" x="0px" y="0px"
	 width="500px" height="387.126px" viewBox="0 0 500 387.126" enable-background="new 0 0 500 387.126" xml:space="preserve">
<g>
	<path fill-rule="evenodd" clip-rule="evenodd" fill="#C7202E" d="M0,387.126C0,258.084,0,129.042,0,0c166.667,0,333.333,0,500,0
		c0,129.042,0,258.084,0,387.126C333.333,387.126,166.667,387.126,0,387.126z M43.759,192.032
		c-0.81,37.94,30.737,63.788,60.296,66.103c20.998,1.644,39.27-4.985,53.88-19.717c12.342-12.444,19.12-28.351,18.991-45.937
		c-0.285-38.852-30.066-66.567-66.974-66.859C74.881,125.345,43.173,153.646,43.759,192.032z M264.552,191.461
		c4.991,0,9.982-0.016,14.974,0.005c3.937,0.017,6.258-1.857,5.865-5.844c-0.375-3.794-1.081-7.616-2.184-11.261
		c-0.93-3.071-2.043-6.441-4.11-8.752c-7.955-8.897-20.033-12.492-31.616-7.032c-4.236,1.997-9.145,4.809-11.25,8.626
		c-4.632,8.402-8.297,17.165-5.438,27.783c1.522,5.654,3.133,10.68,6.914,14.966c3.598,4.079,7.867,7.881,13.302,8.406
		c8.473,0.819,17.385,1.428,24.623-4.306c2.557-2.026,5.219-5.781,5.216-8.743c-0.005-4.573-6.64-6.393-10.433-3.432
		c-1.27,0.992-2.455,2.094-3.722,3.091c-4.865,3.829-9.955,4.205-15.272,0.949c-4.065-2.49-6.08-5.854-5.794-10.866
		c0.156-2.738,0.879-3.666,3.511-3.616C254.274,191.536,259.414,191.466,264.552,191.461z M442.673,214.565
		c1.027,0.915,1.816,1.396,2.306,2.089c2.479,3.514,6.126,5.4,9.826,3.557c3.159-1.574,3.664-5.485,3.621-9.207
		c-0.149-13.064-0.253-26.135,0.042-39.193c0.112-4.993-2.658-7.388-6.299-9.468c-6.913-3.949-14.428-4.636-22.231-4.261
		c-6.922,0.333-12.991,2.124-17.676,7.591c-2.442,2.849-2.525,5.412,0.898,6.365c2.96,0.824,7.363,1.068,9.479-0.566
		c5.573-4.301,11.412-3.754,17.348-2.589c1.501,0.294,2.96,2.901,3.624,4.74c0.61,1.687,0.03,3.774,0.137,5.677
		c0.203,3.672-1.862,5.38-5.124,5.877c-5.263,0.801-10.698,0.898-15.786,2.297c-4.618,1.271-9.029,3.594-13.24,5.97
		c-5.02,2.832-3.201,7.999-3.295,12.344c-0.17,7.81,4.971,13.989,12.715,14.7C427.355,221.256,435.682,221.047,442.673,214.565z
		 M347.917,190.468c-0.006,0-0.011,0-0.017,0c0,7.343-0.037,14.687,0.015,22.031c0.026,3.66,5.347,8.477,8.708,8.009
		c2.338-0.324,5.731-5.009,5.893-7.889c0.655-11.624-1.51-23.343,1.894-34.905c1.617-5.49,5.807-9.69,11.71-9.075
		c5.447,0.567,9.637,4.277,9.437,10.421c-0.348,10.71,0.099,21.446-0.236,32.156c-0.125,4.023,1.709,6.59,4.607,8.293
		c1.598,0.938,4.423,1.077,6.073,0.283c1.733-0.834,3.734-3.131,3.878-4.927c0.941-11.771,1.662-23.575,1.896-35.38
		c0.081-4.086-0.373-8.85-2.412-12.188c-6.606-10.819-21.655-12.456-30.516-5.659c-4.182,3.209-5.99,3.027-8.868-0.708
		c-1.556-2.021-3.149-3.479-6.574-1.427c-3.956,2.371-5.264,5.518-5.41,9.375C347.723,176.067,347.917,183.271,347.917,190.468z
		 M343.75,192.495c-0.847-6.531,1.017-14.591-1.789-22.742c-2.444-7.101-11.774-14.909-18.908-12.958
		c-5.32,1.456-11.334,1.728-15.197,6.797c-0.344,0.452-3.209-0.05-3.375-0.583c-1.229-3.951-3.837-5.629-7.654-4.637
		c-4.137,1.075-5.86,4.193-5.191,8.415c1.463,9.25-0.85,18.415-0.961,27.638c-0.078,6.536-0.664,12.873,0.902,19.331
		c0.973,4.012,3.513,5.036,7.058,4.911c3.431-0.121,5.469-1.909,5.69-5.369c0.674-10.524,1.707-21.055,1.705-31.581
		c-0.001-5.433,2.173-8.821,6.102-11.742c3.351-2.49,11.78-2.556,14.214,2.787c1.52,3.336,2.513,7.174,2.649,10.828
		c0.362,9.687,0.108,19.395,0.144,29.094c0.013,3.459,4.332,8.278,6.846,7.762c4.854-0.997,7.678-4.444,7.748-9.688
		C343.808,205.175,343.75,199.588,343.75,192.495z M210.738,165.991c-0.297-1.095-0.466-2.239-0.908-3.265
		c-1.857-4.313-4.708-5.727-9.737-4.498c-3.917,0.958-4.333,4.092-4.314,7.575c0.083,15.125,0.021,30.25,0.059,45.375
		c0.003,1.438-0.148,3.749,0.594,4.156c2.555,1.4,5.679,3.279,8.202,2.827c2.93-0.526,6.02-2.578,5.888-6.981
		c-0.258-8.657-0.093-17.326-0.073-25.99c0.012-5.036,4.875-12.773,9.133-14.171c3.099-1.017,6.427-1.366,9.483-2.478
		c4.05-1.473,5.454-4.451,3.968-7.382c-1.966-3.881-7.045-6.047-10.153-4C218.842,159.818,215.041,162.835,210.738,165.991z
		 M342.688,255.665c0.525-0.383,1.307-0.651,1.386-1.056c0.639-3.317,1.327-6.643,1.636-9.999c0.24-2.598,0.036-5.338,3.734-5.064
		c3.269,0.242,4.867,2.212,4.764,5.557c-0.077,2.489-0.231,5.007,0.054,7.466c0.133,1.15,1.222,2.189,1.878,3.28
		c0.732-1.034,1.977-2.012,2.095-3.112c0.296-2.751-0.507-5.736,0.264-8.286c0.581-1.921,2.68-4.275,4.518-4.721
		c3.017-0.73,3.708,1.991,3.687,4.589c-0.021,2.639-0.247,5.306,0.07,7.905c0.157,1.282,1.333,2.439,2.048,3.654
		c0.726-1.194,1.958-2.341,2.078-3.593c0.275-2.9-0.008-5.852-0.028-8.782c-0.047-6.395-3.407-8.449-9.511-6.585
		c-2.433,0.743-5.377-0.103-8.076-0.35c-0.951-0.088-1.97-0.969-2.784-0.771c-4.83,1.171-10.604,1.557-9.99,8.796
		C340.82,248.279,337.813,252.691,342.688,255.665z M397.904,241.014c-0.008,0-0.016,0-0.023,0c0,3.967-0.015,7.933,0.005,11.897
		c0.014,2.852,1.19,3.755,3.892,2.394c0.921-0.464,2.188-1.021,3.031-0.738c8.143,2.726,9.24,2.344,12.849-5.021
		c2.628-5.366-1.367-12.129-7.292-12.347c-8.165-0.301-8.087-0.302-8.318-8.458c-0.037-1.266-1.146-2.501-1.761-3.75
		c-0.794,1.229-2.18,2.415-2.272,3.693C397.72,232.775,397.904,236.901,397.904,241.014z M448.949,236.573
		c-5.339,0.104-10.329,4.066-10.634,9.248c-0.365,6.194,1.799,9.356,8.094,10.326c2.215,0.341,4.562,0.068,6.815-0.194
		c1.009-0.117,2.096-0.74,2.826-1.46c0.271-0.269-0.28-2.073-0.623-2.128c-1.03-0.162-2.356-0.138-3.186,0.401
		c-2.83,1.844-5.264,1.429-7.396-0.95c-0.597-0.664-1.16-1.935-0.907-2.62c0.243-0.66,1.534-1.205,2.418-1.298
		c1.881-0.198,3.831,0.153,5.688-0.137c2.121-0.33,5.343-0.514,6.009-1.82c1.473-2.889-0.967-5.21-3.356-6.757
		C452.949,238.054,450.875,237.425,448.949,236.573z M393.795,246.005c-0.012-6.7-2.246-9.045-8.6-9.024
		c-6.041,0.021-10.365,3.594-10.205,8.699c0.168,5.374,4.27,11.084,10.148,10.441C390.604,255.522,393.807,252.339,393.795,246.005z
		 M432.955,224.886c-0.468,0.223-0.937,0.446-1.404,0.668c-0.12,0.413-0.327,0.82-0.35,1.238c-0.457,8.432-1.022,16.86-1.191,25.299
		c-0.024,1.222,1.87,2.482,2.877,3.725c0.837-1.186,2.245-2.313,2.376-3.571c0.201-1.944-0.772-3.988-0.717-5.975
		c0.149-5.389,0.804-10.77,0.769-16.15C435.304,228.369,433.784,226.63,432.955,224.886z M424.366,237.151
		c-1.04,0.71-1.462,0.897-1.744,1.21c-1.019,1.133-2.331,15.322-1.44,16.471c0.395,0.508,1.231,1.066,1.764,0.978
		c0.721-0.119,1.844-0.763,1.929-1.314c0.675-4.434,1.313-8.889,1.57-13.36C426.513,239.956,425.216,238.699,424.366,237.151z
		 M421.412,228.819c-0.208,0.667-0.417,1.334-0.625,2.001c1.551,0.634,3.079,1.354,4.686,1.766c0.162,0.041,0.803-1.788,1.221-2.749
		C424.932,229.498,423.172,229.158,421.412,228.819z"/>
	<path fill-rule="evenodd" clip-rule="evenodd" fill="#FFFFFF" d="M43.759,192.032c-0.586-38.387,31.122-66.688,66.193-66.41
		c36.908,0.292,66.689,28.007,66.974,66.859c0.129,17.586-6.649,33.493-18.991,45.937c-14.61,14.731-32.882,21.36-53.88,19.717
		C74.497,255.82,42.949,229.973,43.759,192.032z M166.663,194.613c1.461-27.039-19.835-43.688-39.632-44.732
		c-33.671-1.776-51.641,22.976-51.621,45.068c0.024,25.836,18.931,45.692,44.909,46.22
		C145.355,241.678,167.137,222.18,166.663,194.613z"/>
	<path fill-rule="evenodd" clip-rule="evenodd" fill="#FFFFFF" d="M264.552,191.464c-5.139,0.002-10.278,0.072-15.414-0.027
		c-2.632-0.05-3.354,0.878-3.511,3.616c-0.286,5.012,1.729,8.376,5.794,10.866c5.317,3.256,10.407,2.88,15.272-0.949
		c1.267-0.997,2.452-2.099,3.722-3.091c3.793-2.961,10.428-1.142,10.433,3.432c0.003,2.962-2.659,6.717-5.216,8.743
		c-7.238,5.733-16.15,5.125-24.623,4.306c-5.435-0.525-9.704-4.327-13.302-8.406c-3.781-4.286-5.392-9.312-6.914-14.966
		c-2.859-10.619,0.806-19.381,5.438-27.783c2.104-3.817,7.014-6.629,11.25-8.626c11.583-5.46,23.662-1.865,31.616,7.032
		c2.067,2.311,3.18,5.681,4.11,8.752c1.103,3.645,1.809,7.467,2.184,11.261c0.393,3.986-1.929,5.86-5.865,5.844
		C274.535,191.446,269.543,191.461,264.552,191.464z M258.244,168.573c-5.458-1.7-8.319,3.001-11.54,6.632
		c-0.851,0.959-0.885,3.09-0.525,4.484c0.178,0.687,2.092,1.24,3.251,1.306c5.972,0.335,11.957,0.682,17.927,0.549
		c1.158-0.025,3.32-2.254,3.224-3.301C270.125,173.312,264.097,168.585,258.244,168.573z"/>
	<path fill-rule="evenodd" clip-rule="evenodd" fill="#FFFFFF" d="M442.673,214.565c-6.991,6.481-15.317,6.69-23.655,5.924
		c-7.744-0.711-12.885-6.891-12.715-14.7c0.094-4.346-1.725-9.512,3.295-12.344c4.211-2.376,8.622-4.7,13.24-5.97
		c5.088-1.399,10.523-1.496,15.786-2.297c3.262-0.497,5.327-2.205,5.124-5.877c-0.106-1.903,0.474-3.991-0.137-5.677
		c-0.664-1.839-2.123-4.446-3.624-4.74c-5.936-1.165-11.774-1.712-17.348,2.589c-2.116,1.634-6.52,1.39-9.479,0.566
		c-3.424-0.953-3.341-3.516-0.898-6.365c4.685-5.467,10.754-7.258,17.676-7.591c7.804-0.375,15.318,0.313,22.231,4.261
		c3.641,2.08,6.411,4.475,6.299,9.468c-0.295,13.058-0.191,26.129-0.042,39.193c0.043,3.722-0.462,7.633-3.621,9.207
		c-3.7,1.844-7.347-0.043-9.826-3.557C444.489,215.962,443.7,215.48,442.673,214.565z M444.781,199.374
		c-0.403-0.167-0.808-0.333-1.21-0.5c1.038-4.666-0.976-6.126-5.214-5.315c-4.1,0.784-8.428,0.977-12.23,2.494
		c-2.212,0.883-4.279,3.607-5.146,5.968c-0.898,2.445-0.717,5.615,2.229,7.39c4.919,2.964,10.48,2.829,14.787,0.044
		C441.123,207.432,442.58,202.827,444.781,199.374z"/>
	<path fill-rule="evenodd" clip-rule="evenodd" fill="#FFFFFF" d="M347.917,190.468c0-7.198-0.194-14.401,0.078-21.588
		c0.146-3.858,1.454-7.005,5.41-9.375c3.424-2.051,5.018-0.593,6.574,1.427c2.877,3.736,4.686,3.917,8.868,0.708
		c8.86-6.797,23.909-5.161,30.516,5.659c2.039,3.338,2.493,8.102,2.412,12.188c-0.233,11.805-0.954,23.608-1.896,35.38
		c-0.144,1.796-2.145,4.093-3.878,4.927c-1.649,0.794-4.475,0.655-6.073-0.283c-2.897-1.703-4.732-4.27-4.607-8.293
		c0.335-10.71-0.112-21.446,0.236-32.156c0.2-6.144-3.99-9.854-9.437-10.421c-5.904-0.615-10.094,3.585-11.71,9.075
		c-3.404,11.562-1.239,23.281-1.894,34.905c-0.162,2.88-3.555,7.564-5.893,7.889c-3.36,0.468-8.682-4.349-8.708-8.009
		c-0.052-7.344-0.015-14.688-0.015-22.031C347.906,190.468,347.911,190.468,347.917,190.468z"/>
	<path fill-rule="evenodd" clip-rule="evenodd" fill="#FFFFFF" d="M343.75,192.495c0,7.094,0.058,12.68-0.017,18.263
		c-0.07,5.244-2.895,8.691-7.748,9.688c-2.515,0.517-6.833-4.303-6.846-7.762c-0.036-9.699,0.218-19.408-0.144-29.094
		c-0.137-3.654-1.13-7.492-2.649-10.828c-2.435-5.343-10.864-5.277-14.214-2.787c-3.928,2.92-6.103,6.309-6.102,11.742
		c0.002,10.526-1.031,21.057-1.705,31.581c-0.222,3.46-2.26,5.248-5.69,5.369c-3.545,0.125-6.084-0.899-7.058-4.911
		c-1.566-6.458-0.98-12.795-0.902-19.331c0.111-9.223,2.425-18.388,0.961-27.638c-0.668-4.221,1.054-7.34,5.191-8.415
		c3.816-0.992,6.424,0.687,7.654,4.637c0.166,0.534,3.031,1.036,3.375,0.583c3.863-5.069,9.877-5.342,15.197-6.797
		c7.134-1.952,16.464,5.857,18.908,12.958C344.767,177.903,342.903,185.964,343.75,192.495z"/>
	<path fill-rule="evenodd" clip-rule="evenodd" fill="#FFFFFF" d="M210.738,165.991c4.302-3.156,8.104-6.172,12.141-8.833
		c3.108-2.047,8.187,0.119,10.153,4c1.486,2.932,0.083,5.91-3.968,7.382c-3.057,1.112-6.384,1.461-9.483,2.478
		c-4.258,1.397-9.121,9.135-9.133,14.171c-0.02,8.665-0.185,17.333,0.073,25.99c0.131,4.403-2.958,6.455-5.888,6.981
		c-2.522,0.452-5.647-1.427-8.202-2.827c-0.742-0.407-0.59-2.718-0.594-4.156c-0.038-15.126,0.023-30.25-0.059-45.375
		c-0.019-3.483,0.397-6.617,4.314-7.575c5.03-1.229,7.88,0.185,9.737,4.498C210.272,163.752,210.441,164.896,210.738,165.991z"/>
	<path fill-rule="evenodd" clip-rule="evenodd" fill="#FFFFFF" d="M342.688,255.665c-4.875-2.974-1.867-7.386-2.179-11.071
		c-0.613-7.239,5.161-7.625,9.99-8.796c0.814-0.198,1.833,0.683,2.784,0.771c2.699,0.247,5.643,1.093,8.076,0.35
		c6.104-1.864,9.464,0.19,9.511,6.585c0.021,2.931,0.304,5.882,0.028,8.782c-0.119,1.252-1.352,2.398-2.078,3.593
		c-0.715-1.215-1.891-2.372-2.048-3.654c-0.317-2.6-0.091-5.267-0.07-7.905c0.021-2.598-0.669-5.319-3.687-4.589
		c-1.838,0.445-3.938,2.8-4.518,4.721c-0.771,2.55,0.032,5.535-0.264,8.286c-0.118,1.101-1.363,2.078-2.095,3.112
		c-0.656-1.091-1.745-2.13-1.878-3.28c-0.285-2.459-0.131-4.977-0.054-7.466c0.103-3.345-1.495-5.314-4.764-5.557
		c-3.699-0.273-3.495,2.467-3.734,5.064c-0.309,3.356-0.997,6.682-1.636,9.999C343.995,255.014,343.213,255.282,342.688,255.665z"/>
	<path fill-rule="evenodd" clip-rule="evenodd" fill="#FFFFFF" d="M397.904,241.014c0-4.112-0.185-8.238,0.109-12.33
		c0.093-1.278,1.479-2.465,2.272-3.693c0.614,1.249,1.724,2.484,1.761,3.75c0.231,8.156,0.153,8.157,8.318,8.458
		c5.925,0.218,9.92,6.98,7.292,12.347c-3.608,7.365-4.706,7.747-12.849,5.021c-0.843-0.282-2.11,0.274-3.031,0.738
		c-2.701,1.361-3.878,0.458-3.892-2.394c-0.02-3.965-0.005-7.931-0.005-11.897C397.889,241.014,397.896,241.014,397.904,241.014z
		 M414.048,246.738c-1.153-3.91-2.984-7.361-7.611-5.214c-1.854,0.86-3.899,3.421-3.996,5.303c-0.08,1.578,2.233,4.081,4.034,4.794
		C410.932,253.389,412.988,250.333,414.048,246.738z"/>
	<path fill-rule="evenodd" clip-rule="evenodd" fill="#FFFFFF" d="M448.949,236.573c1.926,0.852,4,1.48,5.748,2.611
		c2.39,1.547,4.829,3.868,3.356,6.757c-0.666,1.307-3.888,1.49-6.009,1.82c-1.856,0.29-3.807-0.062-5.688,0.137
		c-0.884,0.093-2.175,0.638-2.418,1.298c-0.253,0.686,0.311,1.956,0.907,2.62c2.132,2.379,4.565,2.794,7.396,0.95
		c0.829-0.539,2.155-0.563,3.186-0.401c0.343,0.055,0.895,1.859,0.623,2.128c-0.73,0.72-1.817,1.343-2.826,1.46
		c-2.254,0.263-4.601,0.535-6.815,0.194c-6.295-0.97-8.459-4.132-8.094-10.326C438.62,240.64,443.61,236.677,448.949,236.573z
		 M453.474,245.392c0.152-0.47,0.305-0.938,0.457-1.407c-1.372-1.215-2.576-2.811-4.172-3.514c-1.123-0.494-2.977-0.127-4.137,0.519
		c-0.911,0.505-1.258,2.024-1.854,3.094c1.272,0.437,2.52,1.108,3.824,1.253C449.531,245.55,451.511,245.392,453.474,245.392z"/>
	<path fill-rule="evenodd" clip-rule="evenodd" fill="#FFFFFF" d="M393.795,246.005c0.012,6.334-3.191,9.518-8.656,10.116
		c-5.879,0.643-9.98-5.067-10.148-10.441c-0.16-5.105,4.164-8.679,10.205-8.699C391.549,236.96,393.783,239.305,393.795,246.005z
		 M389.642,245.543c0.537-3.232-1.294-5.198-4.318-5.828c-2.21-0.461-6.342,4.363-6.162,6.969c0.24,3.469,2.214,5.14,5.727,5.198
		C389.313,251.955,389.858,249.163,389.642,245.543z"/>
	<path fill-rule="evenodd" clip-rule="evenodd" fill="#FFFFFF" d="M432.955,224.886c0.829,1.744,2.349,3.483,2.359,5.233
		c0.035,5.381-0.619,10.762-0.769,16.15c-0.056,1.986,0.918,4.03,0.717,5.975c-0.131,1.259-1.539,2.386-2.376,3.571
		c-1.007-1.242-2.901-2.503-2.877-3.725c0.169-8.438,0.734-16.867,1.191-25.299c0.022-0.418,0.229-0.825,0.35-1.238
		C432.019,225.332,432.487,225.108,432.955,224.886z"/>
	<path fill-rule="evenodd" clip-rule="evenodd" fill="#FFFFFF" d="M424.366,237.151c0.85,1.548,2.146,2.805,2.078,3.983
		c-0.258,4.472-0.896,8.927-1.57,13.36c-0.085,0.552-1.208,1.195-1.929,1.314c-0.532,0.089-1.369-0.47-1.764-0.978
		c-0.891-1.148,0.422-15.338,1.44-16.471C422.904,238.049,423.326,237.861,424.366,237.151z"/>
	<path fill-rule="evenodd" clip-rule="evenodd" fill="#FFFFFF" d="M421.412,228.819c1.76,0.339,3.52,0.679,5.281,1.018
		c-0.418,0.961-1.059,2.79-1.221,2.749c-1.606-0.411-3.135-1.132-4.686-1.766C420.995,230.153,421.204,229.486,421.412,228.819z"/>
	<path fill-rule="evenodd" clip-rule="evenodd" fill="#C7202E" d="M166.663,194.613c0.474,27.567-21.308,47.065-46.345,46.556
		c-25.978-0.528-44.885-20.384-44.909-46.22c-0.02-22.093,17.95-46.844,51.621-45.068
		C146.828,150.924,168.124,167.574,166.663,194.613z M139.523,195.18c1.55-9.012-2.745-16.378-9.578-22.478
		c-7.151-6.383-15.935-6.684-24.965-6.256c-6.994,0.332-12.089,4.588-16.403,8.798c-6.749,6.585-7.91,15.646-7.462,24.988
		c0.304,6.345,3.521,11.383,7.484,15.173c6.926,6.625,15.27,10.474,25.677,9.59C124.998,224.085,141.999,211.144,139.523,195.18z"/>
	<path fill-rule="evenodd" clip-rule="evenodd" fill="#C7202E" d="M258.244,168.573c5.854,0.012,11.881,4.739,12.337,9.67
		c0.096,1.047-2.066,3.276-3.224,3.301c-5.97,0.133-11.956-0.214-17.927-0.549c-1.159-0.065-3.073-0.619-3.251-1.306
		c-0.36-1.394-0.326-3.525,0.525-4.484C249.925,171.575,252.785,166.874,258.244,168.573z"/>
	<path fill-rule="evenodd" clip-rule="evenodd" fill="#C7202E" d="M444.781,199.374c-2.201,3.453-3.658,8.058-6.784,10.08
		c-4.307,2.785-9.868,2.92-14.787-0.044c-2.946-1.774-3.128-4.944-2.229-7.39c0.867-2.361,2.935-5.085,5.146-5.968
		c3.803-1.518,8.131-1.71,12.23-2.494c4.238-0.811,6.252,0.649,5.214,5.315C443.974,199.041,444.378,199.208,444.781,199.374z"/>
	<path fill-rule="evenodd" clip-rule="evenodd" fill="#C7202E" d="M414.048,246.738c-1.06,3.595-3.116,6.65-7.573,4.883
		c-1.801-0.713-4.114-3.216-4.034-4.794c0.097-1.882,2.143-4.442,3.996-5.303C411.063,239.377,412.895,242.828,414.048,246.738z"/>
	<path fill-rule="evenodd" clip-rule="evenodd" fill="#C7202E" d="M453.474,245.392c-1.963,0-3.942,0.158-5.882-0.056
		c-1.305-0.145-2.552-0.816-3.824-1.253c0.597-1.069,0.943-2.589,1.854-3.094c1.16-0.646,3.014-1.013,4.137-0.519
		c1.596,0.703,2.8,2.299,4.172,3.514C453.778,244.454,453.626,244.922,453.474,245.392z"/>
	<path fill-rule="evenodd" clip-rule="evenodd" fill="#C7202E" d="M389.642,245.543c0.217,3.62-0.328,6.412-4.753,6.339
		c-3.512-0.059-5.486-1.729-5.727-5.198c-0.18-2.605,3.951-7.43,6.162-6.969C388.348,240.345,390.178,242.311,389.642,245.543z"/>
	<path fill-rule="evenodd" clip-rule="evenodd" fill="#FFFFFF" d="M139.523,195.18c2.476,15.963-14.525,28.905-25.247,29.815
		c-10.407,0.884-18.751-2.965-25.677-9.59c-3.963-3.79-7.18-8.828-7.484-15.173c-0.447-9.342,0.714-18.403,7.462-24.988
		c4.314-4.21,9.41-8.466,16.403-8.798c9.03-0.428,17.814-0.127,24.965,6.256C136.778,178.802,141.073,186.168,139.523,195.18z
		 M100.04,208.131c7.041-0.003,14.803-7.049,14.455-13.121c-0.39-6.816-7.81-13.959-14.482-13.945
		c-6.975,0.016-14.077,6.992-13.646,13.705C86.785,201.268,93.051,209.859,100.04,208.131z"/>
	<path fill-rule="evenodd" clip-rule="evenodd" fill="#ED1C24" d="M100.04,208.131c-6.989,1.729-13.255-6.863-13.673-13.361
		c-0.431-6.713,6.671-13.688,13.646-13.705c6.672-0.015,14.092,7.128,14.482,13.945C114.843,201.082,107.081,208.128,100.04,208.131
		z"/>
</g>
</svg>
