<?xml version="1.0" encoding="UTF-8" standalone="no"?>
<svg
   xmlns:dc="http://purl.org/dc/elements/1.1/"
   xmlns:cc="http://creativecommons.org/ns#"
   xmlns:rdf="http://www.w3.org/1999/02/22-rdf-syntax-ns#"
   xmlns:svg="http://www.w3.org/2000/svg"
   xmlns="http://www.w3.org/2000/svg"
   xmlns:sodipodi="http://sodipodi.sourceforge.net/DTD/sodipodi-0.dtd"
   xmlns:inkscape="http://www.inkscape.org/namespaces/inkscape"
   version="1.1"
   id="Laag_1"
   x="0px"
   y="0px"
   viewBox="0 0 2387.6002 372.50333"
   xml:space="preserve"
   sodipodi:docname="ooredoo.svg"
   width="2387.6001"
   height="372.50333"
   inkscape:version="1.0.2-2 (e86c870879, 2021-01-15)"><metadata
   id="metadata23"><rdf:RDF><cc:Work
       rdf:about=""><dc:format>image/svg+xml</dc:format><dc:type
         rdf:resource="http://purl.org/dc/dcmitype/StillImage" /><dc:title></dc:title></cc:Work></rdf:RDF></metadata><defs
   id="defs21" /><sodipodi:namedview
   pagecolor="#ffffff"
   bordercolor="#666666"
   borderopacity="1"
   objecttolerance="10"
   gridtolerance="10"
   guidetolerance="10"
   inkscape:pageopacity="0"
   inkscape:pageshadow="2"
   inkscape:window-width="1930"
   inkscape:window-height="1378"
   id="namedview19"
   showgrid="false"
   fit-margin-top="0"
   fit-margin-left="0"
   fit-margin-right="0"
   fit-margin-bottom="0"
   inkscape:zoom="0.45824891"
   inkscape:cx="1191.45"
   inkscape:cy="187.05259"
   inkscape:window-x="1501"
   inkscape:window-y="30"
   inkscape:window-maximized="0"
   inkscape:current-layer="Laag_1" />
<style
   type="text/css"
   id="style2">
	.st0{fill:#FFFFFF;}
	.st1{fill:#CD2027;}
</style>

<g
   id="g14"
   transform="translate(-17.5,-13.197413)">
	<path
   class="st1"
   d="m 2405.5,199.5 c 0,102.9 -83.9,186.3 -187.5,186.3 -74.3,0 -138.5,-42.9 -168.8,-105.2 -31.6,64.4 -97.1,105.3 -168.8,105.2 -70,0.1 -134.3,-38.8 -166.6,-100.8 -32.5,62 -96.8,100.9 -166.8,100.7 -74.3,0 -138.5,-42.9 -168.8,-105.2 -31.6,64.4 -97.1,105.3 -168.8,105.2 -70,0.1 -134.3,-38.8 -166.6,-100.8 C 1010.3,347 946,385.9 876,385.7 801.7,385.7 737.5,342.8 707.2,280.5 675.6,344.9 610.1,385.8 538.4,385.7 468.4,385.8 404.1,346.9 371.8,284.9 339.3,347 275,385.9 205,385.7 101.5,385.7 17.5,302.3 17.5,199.4 17.5,96.5 101.5,13.2 205,13.2 275,13 339.3,51.9 371.7,114 404.1,51.9 468.3,13 538.3,13.2 612.6,13.2 676.8,56.1 707.1,118.4 738.7,53.9 804.2,13.1 876,13.2 946,13.1 1010.3,52 1042.6,114 1075,51.9 1139.3,13 1209.3,13.2 c 74.3,0 138.5,42.9 168.8,105.2 31.5,-64.4 97.1,-105.3 168.8,-105.2 19.2,0 37.8,2.9 55.2,8.2 v 102.1 c -14.6,-10.3 -32.1,-19 -51.2,-20.1 -1.3,0 -2.5,-0.1 -3.8,-0.1 -53,0 -96,43.1 -96,96.1 0,53 43,96.1 96,96.1 53,0 95.9,-43.1 95.9,-96.1 v -160 c 30,17.8 54.4,43.6 70.5,74.5 32.5,-62 96.8,-100.9 166.8,-100.7 74.3,0 138.5,42.9 168.8,105.2 31.5,-64.4 97.1,-105.3 168.8,-105.2 103.6,0 187.6,83.4 187.6,186.3 z"
   id="path6" />
	<path
   class="st1"
   d="m 1602.2,198.9 c 0,31.2 -25,56.4 -55.9,56.4 -30.9,0 -55.9,-25.3 -55.9,-56.4 0,-31.1 25,-56.5 55.9,-56.5 30.9,0 55.9,25.3 55.9,56.5 z m -342.5,-32.3 h -98.1 c 8.8,-12.8 25,-21.8 41.7,-23.8 h 0.1 c 2.3,-0.3 4.6,-0.4 7,-0.4 2.4,0 4.7,0.1 7,0.4 h 0.1 c 16.8,2.1 33.4,11 42.2,23.8 z"
   id="path8" />
	<path
   class="st1"
   d="m 2218,13.2 c -74.3,0 -138.5,42.9 -168.8,105.2 C 2017.7,54 1952.1,13.1 1880.4,13.2 1810.4,13.1 1746.1,52 1713.8,114 1697.7,83.1 1673.2,57.3 1643.3,39.5 v 160 c 0,53.1 -42.9,96.1 -95.9,96.1 -53,0 -96,-43.1 -96,-96.1 0,-53 43,-96.1 96,-96.1 1.3,0 2.5,0 3.8,0.1 19,1.1 36.6,9.9 51.2,20.1 V 21.4 c -17.9,-5.5 -36.5,-8.3 -55.2,-8.2 -74.3,0 -138.5,42.9 -168.8,105.2 C 1346.9,54 1281.3,13.1 1209.6,13.2 1139.6,13.1 1075.3,52 1043,114 1010.3,51.9 946,13 876,13.2 801.7,13.2 737.5,56.1 707.2,118.4 675.6,53.9 610.1,13.1 538.3,13.2 468.3,13 404.1,51.9 371.7,114 339.3,51.9 275,13 205,13.2 101.5,13.2 17.5,96.6 17.5,199.5 c 0,102.9 84,186.2 187.5,186.2 70,0.1 134.3,-38.8 166.6,-100.8 32.4,62.1 96.6,100.9 166.6,100.8 74.3,0 138.5,-42.9 168.8,-105.2 31.7,64.5 97.3,105.4 169,105.2 70,0.1 134.3,-38.8 166.6,-100.8 32.4,62.1 96.6,100.9 166.6,100.8 74.3,0 138.5,-42.9 168.8,-105.2 31.6,64.4 97.1,105.3 168.8,105.2 70,0.1 134.3,-38.8 166.6,-100.8 32.4,62.1 96.6,100.9 166.6,100.8 74.3,0 138.5,-42.9 168.8,-105.2 31.6,64.4 97.1,105.3 168.8,105.2 103.5,0 187.5,-83.4 187.5,-186.3 C 2405.1,96.5 2321.5,13.2 2218,13.2 Z M 204.5,296.4 c -53,0 -95.9,-43 -95.9,-96.1 0,-53.1 42.9,-96.1 95.9,-96.1 53,0 96,43 96,96.1 -0.1,53.1 -43,96.1 -96,96.1 z m 335.8,-0.8 c -53,0 -96,-43.1 -96,-96.1 0,-53 43,-96.1 96,-96.1 53,0 95.9,43.1 95.9,96.1 0,53 -42.9,96.1 -95.9,96.1 z M 929.8,190 c -4.2,-27 -27.3,-47.6 -55.2,-47.6 -30.9,0 -55.9,25.3 -55.9,56.5 v 90.9 h -39.1 v -90.3 c 0,-53.1 42.9,-96.1 95.9,-96.1 49.8,0 90.8,38.1 95.5,86.7 h -41.2 z m 377.4,11 h -152.7 c 0.3,7.4 1.9,14.4 4.8,20.8 8.7,19.8 28.3,33.5 51.1,33.5 22.8,0 42.4,-13.8 51.1,-33.5 h 43.1 c -10,42.3 -48,73.8 -93.3,73.8 -53,0 -96,-43.1 -96,-96.1 0,-53 43,-96.1 96,-96.1 53,0 95.9,43.1 95.9,96.1 0,0.5 0,1 0,1.5 z m 575.9,94.6 c -53,0 -96,-43.1 -96,-96.1 0,-53 43,-96.1 96,-96.1 53,0 95.9,43.1 95.9,96.1 0,53 -42.9,96.1 -95.9,96.1 z m 334.1,0 c -53,0 -95.9,-43.1 -95.9,-96.1 0,-53 42.9,-96.1 95.9,-96.1 53,0 96,43.1 96,96.1 0,53 -43,96.1 -96,96.1 z"
   id="path10" />
	<path
   class="st1"
   d="m 2273.1,198.9 c 0,31.2 -25,56.4 -55.9,56.4 -30.9,0 -56,-25.3 -56,-56.4 0,-31.2 25,-56.5 56,-56.5 30.9,0 55.9,25.3 55.9,56.5 z m -335,0 c 0,31.2 -25,56.4 -55.9,56.4 -30.9,0 -55.9,-25.3 -55.9,-56.4 0,-31.2 25,-56.5 55.9,-56.5 30.9,0 55.9,25.3 55.9,56.5 z m -1342.8,0 c 0,31.2 -25,56.4 -55.9,56.4 -30.9,0 -55.9,-25.3 -55.9,-56.4 0,-31.2 25,-56.5 55.9,-56.5 30.9,0 55.9,25.3 55.9,56.5 z m -335.8,0.8 c 0,31.2 -25,56.5 -55.9,56.5 -30.9,0 -55.9,-25.3 -55.9,-56.5 0,-31.2 25,-56.4 55.9,-56.4 30.9,0 55.9,25.2 55.9,56.4 z m 1286.8,-57.3 c 30.9,0 55.9,25.3 55.9,56.5 0,31.2 -25,56.4 -55.9,56.4 -30.9,0 -55.9,-25.3 -55.9,-56.4 0,-31.1 25,-56.5 55.9,-56.5 z"
   id="path12" />
</g>
<path
   class="st0"
   d="m 187,91.002587 c -53,0 -95.9,43.000003 -95.9,96.100003 0,53.1 42.9,96.1 95.9,96.1 53,0 96,-43 96,-96.1 -0.1,-53.1 -43,-96.100003 -96,-96.100003 z m -0.9,152.000003 c -30.9,0 -55.9,-25.3 -55.9,-56.5 0,-31.2 25,-56.4 55.9,-56.4 30.9,0 55.9,25.3 55.9,56.4 0,31.1 -25.1,56.5 -55.9,56.5 z M 522.8,90.102587 c -53,0 -96,43.100003 -96,96.100003 0,53 43,96.1 96,96.1 53,0 95.9,-43.1 95.9,-96.1 0,-53 -42.9,-96.100003 -95.9,-96.100003 z m -0.9,152.100003 c -30.9,0 -55.9,-25.3 -55.9,-56.4 0,-31.2 25,-56.5 55.9,-56.5 30.9,0 55.9,25.3 55.9,56.5 0,31.1 -25,56.4 -55.9,56.4 z M 1865.6,90.102587 c -53,0 -96,43.100003 -96,96.100003 0,53 43,96.1 96,96.1 53,0 95.9,-43.1 95.9,-96.1 0,-53 -42.9,-96.100003 -95.9,-96.100003 z m -0.9,152.100003 c -30.9,0 -55.9,-25.3 -55.9,-56.4 0,-31.2 25,-56.5 55.9,-56.5 30.9,0 55.9,25.3 55.9,56.5 0,31.2 -25,56.4 -55.9,56.4 z m 335,-152.100003 c -53,0 -95.9,43.100003 -95.9,96.100003 0,53 42.9,96.1 95.9,96.1 53,0 96,-43.1 96,-96.1 0,-53 -43,-96.100003 -96,-96.100003 z m 0.1,152.100003 c -30.9,0 -56,-25.3 -56,-56.4 0,-31.2 25,-56.5 56,-56.5 30.9,0 55.9,25.3 55.9,56.5 0,31.2 -25.1,56.4 -55.9,56.4 z m -910.1,-55.9 c 0,-53.1 -42.9,-96.100003 -95.9,-96.100003 -53,0 -96,43.100003 -96,96.100003 0,53 43,96.1 96,96.1 45.3,0 83.2,-31.5 93.3,-73.8 H 1244 c -8.7,19.8 -28.3,33.5 -51.1,33.5 -22.8,0 -42.4,-13.8 -51.1,-33.5 -2.9,-6.6 -4.5,-13.6 -4.8,-20.8 h 152.7 c 0,-0.5 0,-1 0,-1.5 z m -145.6,-32.9 c 8.8,-12.8 25,-21.8 41.7,-23.8 h 0.1 c 2.3,-0.3 4.6,-0.4 7,-0.4 2.4,0 4.7,0.1 7,0.4 h 0.1 c 16.8,2 33.4,11 42.2,23.8 z m -190.6,23.4 h -41.2 c -4.2,-27 -27.3,-47.6 -55.2,-47.6 -30.9,0 -55.9,25.3 -55.9,56.5 v 90.9 h -39.1 v -90.3 c 0,-53.1 42.9,-96.100003 95.9,-96.100003 49.8,-0.1 90.8,38.000003 95.5,86.600003 z M 1584.7,8.2025872 V 110.30259 c -14.6,-10.3 -32.1,-19.000003 -51.2,-20.100003 -1.3,0 -2.5,-0.1 -3.8,-0.1 -53,0 -96,43.100003 -96,96.100003 0,53 43,96.1 96,96.1 53,0 95.9,-43.1 95.9,-96.1 V 26.202587 c -12.7,-7.5 -26.4,-13.6 -40.9,-17.9999998 z M 1528.8,242.20259 c -30.9,0 -55.9,-25.3 -55.9,-56.4 0,-31.2 25,-56.5 55.9,-56.5 30.9,0 55.9,25.3 55.9,56.5 0,31.2 -25,56.4 -55.9,56.4 z"
   id="path16" />
</svg>
