<?xml version="1.0" encoding="UTF-8" standalone="no"?>
<svg
   xmlns:dc="http://purl.org/dc/elements/1.1/"
   xmlns:cc="http://creativecommons.org/ns#"
   xmlns:rdf="http://www.w3.org/1999/02/22-rdf-syntax-ns#"
   xmlns:svg="http://www.w3.org/2000/svg"
   xmlns="http://www.w3.org/2000/svg"
   xmlns:sodipodi="http://sodipodi.sourceforge.net/DTD/sodipodi-0.dtd"
   xmlns:inkscape="http://www.inkscape.org/namespaces/inkscape"
   height="1088.1124"
   viewBox="45.7 52.8 212.86912 116.5"
   width="2229.4629"
   version="1.1"
   id="svg12"
   sodipodi:docname="omantel.svg"
   inkscape:version="1.0.2-2 (e86c870879, 2021-01-15)">
  <metadata
     id="metadata18">
    <rdf:RDF>
      <cc:Work
         rdf:about="">
        <dc:format>image/svg+xml</dc:format>
        <dc:type
           rdf:resource="http://purl.org/dc/dcmitype/StillImage" />
        <dc:title></dc:title>
      </cc:Work>
    </rdf:RDF>
  </metadata>
  <defs
     id="defs16" />
  <sodipodi:namedview
     pagecolor="#ffffff"
     bordercolor="#666666"
     borderopacity="1"
     objecttolerance="10"
     gridtolerance="10"
     guidetolerance="10"
     inkscape:pageopacity="0"
     inkscape:pageshadow="2"
     inkscape:window-width="1930"
     inkscape:window-height="1378"
     id="namedview14"
     showgrid="false"
     fit-margin-top="0"
     fit-margin-left="0"
     fit-margin-right="0"
     fit-margin-bottom="0"
     inkscape:zoom="0.4432"
     inkscape:cx="1129.3695"
     inkscape:cy="203.61246"
     inkscape:window-x="1501"
     inkscape:window-y="30"
     inkscape:window-maximized="0"
     inkscape:current-layer="svg12" />
  <path
     d="m 179.38457,135.3 v 4.6 h 0.2 c 1.2,-1.9 2.6,-3.3 4.5,-4.2 1.8,-0.9 3.7,-1.3 5.6,-1.3 2.4,0 4.4,0.3 5.9,1 1.5,0.6 2.8,1.6 3.6,2.7 0.9,1.2 1.5,2.6 1.9,4.2 0.4,1.7 0.5,3.6 0.5,5.6 v 20.3 h -9 v -18.6 c 0,-2.7 -0.4,-4.7 -1.3,-6.1 -0.9,-1.3 -2.4,-2 -4.5,-2 -2.4,0 -4.2,0.7 -5.3,2.2 -1.1,1.5 -1.7,3.9 -1.7,7.2 v 17.3 h -9 v -32.9 z m -24.8,17.6 c -0.6,0.2 -1.2,0.3 -1.9,0.5 -0.6,0.1 -1.3,0.3 -2,0.3 -0.7,0.1 -1.4,0.2 -2.2,0.3 -0.7,0.1 -1.3,0.3 -2,0.5 -0.6,0.2 -1.2,0.5 -1.7,0.8 -0.5,0.4 -0.9,0.8 -1.2,1.4 -0.3,0.5 -0.4,1.2 -0.4,2.1 0,0.8 0.2,1.5 0.4,2 0.3,0.6 0.7,1 1.2,1.3 0.5,0.3 1.1,0.5 1.8,0.6 0.7,0.1 1.4,0.2 2.1,0.2 1.8,0 3.2,-0.3 4.1,-0.9 1,-0.6 1.7,-1.3 2.2,-2.2 0.5,-0.8 0.8,-1.6 0.9,-2.5 0.1,-0.8 0.2,-1.5 0.2,-2 v -3.2 c -0.4,0.3 -0.9,0.6 -1.5,0.8 m -17.8,-12.8 c 0.9,-1.4 2.1,-2.5 3.5,-3.4 1.4,-0.9 3.1,-1.4 4.9,-1.8 1.8,-0.3 3.6,-0.5 5.4,-0.5 1.6,0 3.3,0.1 5,0.3 1.7,0.2 3.2,0.7 4.7,1.4 1.4,0.7 2.5,1.6 3.4,2.8 0.9,1.2 1.3,2.8 1.3,4.8 v 17.1 c 0,1.5 0.1,2.9 0.3,4.3 0.2,1.4 0.5,2.4 0.9,3.1 h -9.1 c -0.1,-0.5 -0.3,-1 -0.4,-1.6 -0.1,-0.5 -0.2,-1.1 -0.2,-1.6 -1.4,1.5 -3.2,2.5 -5.1,3.1 -1.9,0.6 -3.9,0.9 -5.9,0.9 -1.6,0 -3,-0.2 -4.4,-0.6 -1.3,-0.4 -2.5,-1 -3.5,-1.8 -1,-0.8 -1.8,-1.8 -2.4,-3.1 -0.6,-1.2 -0.8,-2.7 -0.8,-4.4 0,-1.9 0.3,-3.4 1,-4.6 0.7,-1.2 1.5,-2.2 2.5,-2.9 1.1,-0.7 2.2,-1.2 3.6,-1.6 1.3,-0.4 2.7,-0.6 4.1,-0.9 1.3,-0.2 2.7,-0.4 4,-0.5 1.3,-0.1 2.5,-0.3 3.5,-0.6 1,-0.3 1.8,-0.6 2.4,-1.1 0.6,-0.5 0.9,-1.2 0.8,-2.1 0,-1 -0.2,-1.7 -0.5,-2.3 -0.3,-0.6 -0.8,-1 -1.3,-1.3 -0.5,-0.3 -1.1,-0.6 -1.8,-0.6 -0.7,-0.1 -1.5,-0.1 -2.3,-0.1 -1.8,0 -3.2,0.4 -4.2,1.2 -1,0.7 -1.6,2 -1.8,3.8 h -9 c 0,-2.2 0.5,-4 1.4,-5.4 m -47.400009,-4.8 v 4.5 h 0.1 c 1.2,-1.7 2.6,-3 4.3,-3.9 1.7,-0.9 3.6,-1.4 5.7,-1.4 2.100009,0 4.000009,0.4 5.700009,1.2 1.7,0.8 3,2.2 3.9,4.3 1,-1.5 2.3,-2.7 4,-3.8 1.7,-1.1 3.7,-1.6 5.9,-1.6 1.7,0 3.4,0.2 4.8,0.6 1.5,0.4 2.8,1.1 3.8,2 1.1,0.9 1.9,2.1 2.5,3.7 0.6,1.5 0.9,3.3 0.9,5.4 v 22.1 h -9 v -18.7 c 0,-1.1 0,-2.1 -0.1,-3.1 -0.1,-1 -0.3,-1.8 -0.7,-2.6 -0.4,-0.7 -0.9,-1.3 -1.7,-1.7 -0.7,-0.4 -1.7,-0.6 -3,-0.6 -1.3,0 -2.3,0.2 -3.1,0.7 -0.8,0.5 -1.4,1.1 -1.9,1.9 -0.4,0.8 -0.7,1.7 -0.9,2.7 -0.2,1 -0.2,2 -0.2,3 v 18.3 h -9.00001 v -18.5 c 0,-1 0,-1.9 -0.1,-2.9 -0.1,-1 -0.2,-1.8 -0.5,-2.6 -0.3,-0.8 -0.899999,-1.5 -1.599999,-1.9 -0.7,-0.5 -1.8,-0.7 -3.3,-0.7 -0.4,0 -1,0.1 -1.7,0.3 -0.7,0.2 -1.4,0.6 -2,1.1 -0.6,0.5 -1.2,1.3 -1.7,2.3 -0.5,1 -0.7,2.3 -0.7,3.9 v 19.1 h -9 v -32.9 h 8.6 z m -46,16 c 0.4,1.8 1.1,3.4 2.1,4.9 1,1.4 2.2,2.6 3.8,3.5 1.6,0.9 3.5,1.3 5.7,1.3 2.2,0 4.2,-0.4 5.7,-1.3 1.6,-0.9 2.8,-2 3.8,-3.5 1,-1.4 1.7,-3.1 2.1,-4.9 0.5,-1.8 0.7,-3.7 0.7,-5.6 0,-2 -0.2,-3.9 -0.7,-5.8 -0.4,-1.9 -1.2,-3.6 -2.1,-5 -1,-1.5 -2.2,-2.6 -3.8,-3.5 -1.6,-0.9 -3.5,-1.3 -5.7,-1.3 -2.2,0 -4.1,0.4 -5.7,1.3 -1.6,0.9 -2.8,2 -3.8,3.5 -1,1.4 -1.7,3.1 -2.1,5 -0.4,1.8 -0.7,3.8 -0.7,5.8 0.1,1.9 0.3,3.7 0.7,5.6 m -9.1,-15.1 c 1,-2.9 2.5,-5.5 4.4,-7.6 1.9,-2.2 4.2,-3.9 7,-5.1 2.8,-1.2 5.9,-1.9 9.3,-1.9 3.5,0 6.7,0.6 9.4,1.9 2.7,1.2 5.1,2.9 7,5.1 1.9,2.1 3.3,4.7 4.4,7.6 1,2.9 1.5,6.1 1.5,9.5 0,3.3 -0.5,6.4 -1.5,9.3 -1,2.9 -2.5,5.4 -4.4,7.5 -1.9,2.1 -4.2,3.8 -7,5 -2.7,1.2 -5.9,1.8 -9.4,1.8 -3.5,0 -6.6,-0.6 -9.3,-1.8 -2.8,-1.2 -5.1,-2.9 -7,-5 -1.9,-2.1 -3.4,-4.6 -4.4,-7.5 -1,-2.9 -1.5,-6 -1.5,-9.3 0,-3.4 0.5,-6.6 1.5,-9.5 M 212.78457,93.8 c -0.2,1.3 -0.7,2.4 -1.3,3.4 -0.6,1 -1.4,1.8 -2.5,2.4 -1,0.6 -2.3,0.9 -3.9,0.9 -1.5,0 -2.8,-0.3 -3.8,-0.9 -1,-0.6 -1.8,-1.4 -2.5,-2.4 -0.6,-1 -1,-2.1 -1.3,-3.4 -0.2,-1.2 -0.4,-2.5 -0.4,-3.9 0,-1.3 0.1,-2.6 0.4,-3.9 0.3,-1.3 0.7,-2.4 1.3,-3.4 0.6,-1 1.4,-1.8 2.5,-2.4 1,-0.6 2.3,-0.9 3.8,-0.9 1.5,0 2.8,0.3 3.9,0.9 1,0.6 1.8,1.4 2.5,2.4 0.6,1 1.1,2.1 1.3,3.4 0.3,1.3 0.4,2.6 0.4,3.9 -0.1,1.4 -0.2,2.7 -0.4,3.9 m 42.4,-0.6 c -1.2,-0.1 -2.2,-0.4 -3,-0.9 -1,-0.6 -1.7,-1.5 -2.3,-2.4 -0.6,-1 -1,-2.1 -1.3,-3.3 -0.3,-1.2 -0.4,-2.4 -0.4,-3.7 0,-1.2 0.1,-2.5 0.4,-3.7 0.3,-1.2 0.7,-2.4 1.3,-3.4 0.6,-1 1.4,-1.9 2.4,-2.5 1,-0.7 2.2,-1 3.6,-1 3.8,0 6.1,1.9 6.7,5.7 h 8.8 c -0.1,-2.1 -0.6,-3.9 -1.5,-5.5 -0.9,-1.6 -2.1,-2.9 -3.5,-3.9 -1.4,-1.1 -3,-1.8 -4.8,-2.3 -1.8,-0.5 -3.7,-0.8 -5.6,-0.8 -2.7,0 -5,0.4 -7.1,1.3 -2.1,0.9 -3.8,2.1 -5.3,3.7 -1.4,1.6 -2.5,3.4 -3.3,5.6 -0.7,2.2 -1.1,4.6 -1.1,7.1 0,2.5 0.4,4.7 1.2,6.8 0.5,1.2 1,2.3 1.7,3.3 h -16.2 c -1.5,0 -2.5,-0.3 -3,-0.7 -0.5,-0.5 -0.7,-1.3 -0.7,-2.5 0,-2.6 -0.4,-5 -1.2,-7.2 -0.8,-2.1 -1.9,-4 -3.4,-5.5 -1.5,-1.5 -3.3,-2.7 -5.4,-3.5 -2.1,-0.8 -4.4,-1.2 -7,-1.2 -2.6,0 -4.9,0.4 -7,1.2 -2.1,0.8 -3.9,2 -5.3,3.5 -1.5,1.5 -2.6,3.3 -3.4,5.5 -0.7,2 -1.1,4.2 -1.2,6.6 v 0.3 c 0,1.3 -0.3,2.2 -0.8,2.7 -0.5,0.5 -1.5,0.7 -3,0.7 h -16.8 c -1.8,0 -3.2,-0.3 -4.3,-0.9 -1.2,-0.6 -2.1,-1.3 -2.8,-2.2 -0.7,-0.9 -1.1,-2 -1.3,-3.1 -0.2,-1.2 -0.3,-2.4 -0.3,-3.6 V 55.1 h -10 v 28.3 c 0,6.2 1.7,10.8 5,13.8 3.4,3 8.1,5.1 14.2,5.1 h 19.4 c 1.7,0 3,-0.3 4,-0.8 l 0.2,-0.1 c 0.3,0.4 0.7,0.8 1.1,1.3 1.5,1.5 3.3,2.6 5.3,3.4 2.1,0.8 4.4,1.2 7,1.2 2.6,0 5,-0.4 7,-1.2 2.1,-0.8 3.9,-2 5.4,-3.4 0.4,-0.4 0.7,-0.8 1.1,-1.3 l 0.2,0.1 c 1,0.6 2.4,0.8 4,0.8 h 48.6 v -9 h -16.3 z m -152.9,4.3 c 0.2,0.2 0.4,0.5 0.7,0.7 3.4,3 8.1,4.5 14.3,4.5 6.1,0 10.8,-1.5 14.2,-4.5 3.4,-3 5.1,-7.6 5.1,-13.7 V 68.4 h -10 v 16.1 c 0,3.4 -0.7,5.9 -2,7.5 -1.3,1.6 -3.8,2.4 -7.4,2.4 -2,0 -3.6,-0.3 -4.8,-0.9 -1.2,-0.6 -2.2,-1.3 -2.8,-2.2 -0.7,-0.9 -1.1,-2 -1.3,-3.2 -0.2,-1.2 -0.3,-2.4 -0.3,-3.6 m 29.3,-26.3 c 0,-3 -2.4,-5.4 -5.4,-5.4 -3,0 -5.5,2.4 -5.5,5.4 0,3 2.4,5.4 5.5,5.4 3,0.1 5.4,-2.4 5.4,-5.4"
     fill="#004c97"
     id="path2" />
  <g
     fill="#ff9e1b"
     id="g8"
     transform="translate(-12.915439,-72.9)">
    <path
       d="m 109.5,131.1 c 0,-3 -2.4,-5.4 -5.4,-5.4 -3,0 -5.5,2.4 -5.5,5.4 0,3 2.4,5.4 5.5,5.4 2.9,0.1 5.4,-2.4 5.4,-5.4 m 13.1,0 c 0,-3 -2.5,-5.4 -5.4,-5.4 -3,0 -5.4,2.4 -5.4,5.4 0,3 2.4,5.4 5.4,5.4 2.9,0.1 5.4,-2.4 5.4,-5.4"
       id="path4" />
    <path
       d="m 120.9,157.4 c 0,0 0.4,8.4 -5.6,13 -3.4,2.6 -7.9,4 -13.7,4 h -8 c -3.6,0 -6.8,-0.5 -9.4,-1.5 -0.4,5 -2.1,8.8 -5,11.4 -3.4,3 -8.2,4.5 -14.2,4.5 -6.1,0 -10.9,-1.5 -14.2,-4.4 -3.4,-3 -5.1,-7.6 -5.1,-13.8 v -10.7 h 9.9 v 10.7 c 0,1.2 0.1,2.4 0.3,3.6 0.2,1.2 0.7,2.2 1.3,3.2 0.7,0.9 1.6,1.7 2.8,2.2 1.2,0.6 2.8,0.9 4.9,0.9 3.6,0 6,-0.8 7.4,-2.4 1.4,-1.6 2.1,-4.1 2.1,-7.5 V 128 h 9.9 v 28.3 c 0,1.2 0.1,2.4 0.3,3.6 0.2,1.2 0.6,2.2 1.3,3.1 0.7,0.9 1.6,1.6 2.8,2.2 1.2,0.6 2.8,0.9 4.9,0.9 h 8 c 2,0 3.7,-0.3 4.9,-0.9 1.2,-0.6 2.1,-1.3 2.8,-2.2 0.7,-0.9 1.1,-2 1.3,-3.1 0.2,-1.2 0.3,-2.4 0.3,-3.6 v -15 h 9.9 z m 117.2,50.8 v 6.1 h -6.6 v 16.3 c 0,1.5 0.3,2.5 0.8,3 0.5,0.5 1.5,0.8 3,0.8 0.5,0 1,0 1.5,-0.1 0.5,-0.1 0.9,-0.1 1.3,-0.2 v 7 c -0.8,0.1 -1.6,0.2 -2.5,0.3 -0.9,0 -1.8,0.1 -2.7,0.1 -1.4,0 -2.7,-0.1 -4,-0.3 -1.3,-0.2 -2.3,-0.6 -3.3,-1.1 -0.9,-0.6 -1.7,-1.3 -2.3,-2.4 -0.5,-1 -0.8,-2.3 -0.8,-4 V 214.3 H 217 v -6.1 h 5.5 v -9.9 h 9 v 9.9 z m 22.9,7.7 c -1.1,-1.2 -2.7,-1.8 -4.9,-1.8 -1.4,0 -2.6,0.3 -3.6,0.7 -1,0.5 -1.7,1.1 -2.3,1.8 -0.6,0.7 -1,1.5 -1.2,2.3 -0.2,0.8 -0.4,1.5 -0.4,2.2 h 14.7 c -0.5,-2.3 -1.2,-4 -2.3,-5.2 m -10.2,17.3 c 1.4,1.3 3.3,2 5.8,2 1.8,0 3.4,-0.5 4.7,-1.4 1.3,-0.9 2.1,-1.9 2.4,-2.9 h 7.9 c -1.3,4 -3.2,6.8 -5.8,8.5 -2.6,1.7 -5.8,2.6 -9.6,2.6 -2.6,0 -4.9,-0.4 -7,-1.2 -2.1,-0.8 -3.8,-2 -5.3,-3.5 -1.4,-1.5 -2.6,-3.4 -3.3,-5.5 -0.8,-2.1 -1.2,-4.4 -1.2,-7 0,-2.5 0.4,-4.7 1.2,-6.9 0.8,-2.1 2,-4 3.4,-5.5 1.5,-1.6 3.2,-2.8 5.3,-3.7 2.1,-0.9 4.3,-1.3 6.8,-1.3 2.8,0 5.2,0.5 7.3,1.6 2.1,1.1 3.8,2.5 5.1,4.3 1.3,1.8 2.3,3.9 2.9,6.3 0.6,2.3 0.8,4.8 0.6,7.3 h -23.7 c 0.4,2.9 1.2,5 2.5,6.3 m 24.5,-37.6 h 9 v 45.5 h -9 z"
       id="path6" />
  </g>
</svg>
